<svg width="1920" height="995" viewBox="0 0 1920 995" fill="none" xmlns="http://www.w3.org/2000/svg">
<path d="M-754 967.758C-649.63 868.664 -369.441 688.328 -83.649 759.738C273.591 849 639.938 1205.27 1154.08 809.414C1668.23 413.555 2070.3 -13.3521 2660.1 279.273C3131.93 513.374 3255.96 482.377 3259 437.617" stroke="url(#paint0_linear_701_3465)" stroke-width="4"/>
<path d="M3087 317.718C2996.44 395.281 2753.33 536.432 2505.35 480.539C2195.38 410.672 1877.51 131.811 1431.39 441.656C985.28 751.501 636.411 1085.65 124.656 856.606C-284.748 673.372 -392.366 697.633 -395 732.668" stroke="#FF4FD8" stroke-width="2"/>
<path d="M3002 269.418C2923.56 369.52 2510.79 82.0533 2296 9.91699C2027.51 -80.2534 2066 545.917 1567.97 429.372C1074.78 313.963 1110.5 875.919 629 961.917C49.5715 1065.41 -395.719 746.2 -398 791.416" stroke="#67FF1F" stroke-dasharray="8 8"/>
<defs>
<linearGradient id="paint0_linear_701_3465" x1="1252.5" y1="182.417" x2="1252.5" y2="992.417" gradientUnits="userSpaceOnUse">
<stop stop-color="#4BD4FF"/>
<stop offset="1" stop-color="#007AD5"/>
</linearGradient>
</defs>
</svg>
