<svg width="30" height="23" viewBox="0 0 30 23" fill="none" xmlns="http://www.w3.org/2000/svg">
<path d="M24.9599 2.49023C23.0788 1.64588 21.0584 1.02373 18.9451 0.69043C18.6896 1.13482 18.3877 1.73476 18.1787 2.22359C15.9261 1.89029 13.7199 1.89029 11.5137 2.22359C11.3047 1.73476 11.0028 1.13482 10.7241 0.69043C8.61077 1.04594 6.59036 1.64588 4.70928 2.51245C0.90067 8.00071 -0.144374 13.3779 0.366537 18.6662C2.89787 20.466 5.3363 21.577 7.75152 22.288C8.35532 21.5103 8.86623 20.6659 9.33069 19.7994C8.47143 19.4883 7.6354 19.0883 6.84581 18.6439C7.05482 18.4884 7.26383 18.3329 7.44961 18.1773C12.2568 20.3326 17.4588 20.3326 22.1963 18.1773C22.4054 18.3329 22.5911 18.4884 22.8002 18.6439C22.0106 19.0883 21.1745 19.4883 20.3153 19.7994C20.7797 20.6659 21.2906 21.5103 21.8944 22.288C24.3097 21.577 26.7481 20.466 29.2794 18.6662C29.8832 12.5335 28.2344 7.2008 24.9367 2.49023H24.9599ZM9.98094 15.4221C8.5411 15.4221 7.35672 14.1333 7.35672 12.578C7.35672 11.0226 8.51788 9.71163 9.98094 9.71163C11.444 9.71163 12.6284 11.0004 12.6052 12.578C12.6052 14.1556 11.444 15.4221 9.98094 15.4221ZM19.665 15.4221C18.2252 15.4221 17.0408 14.1333 17.0408 12.578C17.0408 11.0226 18.202 9.71163 19.665 9.71163C21.1281 9.71163 22.3125 11.0004 22.2892 12.578C22.2892 14.1556 21.1281 15.4221 19.665 15.4221Z" fill="#29C5F6"/>
</svg>
