<svg width="114" height="112" viewBox="0 0 114 112" fill="none" xmlns="http://www.w3.org/2000/svg">
<path d="M50 110.963H49V110.99C22.2983 110.462 1 88.8338 1 62C1 34.8326 22.8686 13 50 13C77.1324 13 99 34.7965 99 61.963C99 89.1309 77.1679 110.963 50 110.963Z" fill="#0D141E" stroke="url(#paint0_linear_716_3491)" stroke-width="2"/>
<path d="M40.9432 45.1316C46.891 51.0901 53.8955 57.9166 57.0606 65.309C60.4121 73.1401 57.4652 82.0719 53.9004 87.7738C50.3356 93.4757 48.0041 98.1298 49.1711 99.0673C50.3381 100.005 58.4017 94.2838 60.2503 84.544C62.2582 73.9626 61.2212 65.8509 53.1232 56.1566C44.123 45.381 35.113 38.4778 31.5483 36.0704C27.9835 33.663 27.4025 26.6927 34.787 28.2153C42.1739 29.7355 64.6535 39.8733 70.16 51.0254C75.6665 62.1775 64.9771 85.3688 61.8022 90.7542C66.4678 79.5398 73.3987 61.6068 68.3458 51.7855C63.2928 41.9641 43.7283 33.4089 38.999 31.9534C34.2697 30.4979 30.1238 29.9249 32.3255 32.7782C34.5271 35.6316 40.6171 38.8614 48.6513 47.1625C56.6855 55.4637 61.3486 62.0528 63.1629 70.0997C64.9772 78.1467 62.9692 87.6515 59.4044 93.5428C55.8397 99.4342 50.6592 103.175 47.3544 101.273C44.0495 99.3719 50.3552 90.0469 53.2507 84.6087C56.357 78.7773 59.277 70.2244 53.8342 61.8609C48.3914 53.4975 44.959 49.5052 40.9407 45.134L40.9432 45.1316Z" fill="url(#paint1_linear_716_3491)"/>
<path fill-rule="evenodd" clip-rule="evenodd" d="M100.479 8.35965L102.651 7.77767L102.672 7.80133C102.964 7.7158 103.213 7.52465 103.363 7.26485L104.473 5.34227C104.788 4.79667 105.485 4.61 106.03 4.925C106.359 5.115 106.568 5.45454 106.603 5.83301C106.719 7.03172 106.488 8.27229 105.838 9.39812C104.788 11.2168 102.924 12.2653 100.974 12.3632C100.597 12.3765 100.269 12.6032 100.084 12.9237L94.9044 21.8957C94.1494 23.2034 92.4692 23.6536 91.1615 22.8986C89.8538 22.1436 89.4036 20.4634 90.1586 19.1557L95.3386 10.1837C95.5236 9.86322 95.5477 9.46145 95.3792 9.13325C94.489 7.39526 94.465 5.25677 95.515 3.43812C96.165 2.31229 97.1287 1.48306 98.2286 0.998013C98.5741 0.839545 98.9722 0.85 99.3013 1.04C99.8469 1.355 100.034 2.05167 99.7186 2.59727L98.6136 4.51118C98.4636 4.77099 98.4175 5.0908 98.4944 5.37767L99.0764 7.54965C99.2411 8.16436 99.8646 8.52436 100.479 8.35965ZM92.1962 21.1865C92.6744 21.4627 93.286 21.2988 93.5622 20.8205C93.8383 20.3422 93.6744 19.7306 93.1962 19.4545C92.7179 19.1783 92.1063 19.3422 91.8301 19.8205C91.554 20.2988 91.7179 20.9104 92.1962 21.1865Z" fill="url(#paint2_linear_716_3491)"/>
<defs>
<linearGradient id="paint0_linear_716_3491" x1="50" y1="12" x2="50" y2="112" gradientUnits="userSpaceOnUse">
<stop stop-color="#4BD4FF"/>
<stop offset="1" stop-color="#007AD5"/>
</linearGradient>
<linearGradient id="paint1_linear_716_3491" x1="37.7535" y1="25.9925" x2="66.2219" y2="97.6816" gradientUnits="userSpaceOnUse">
<stop offset="0.21" stop-color="#29C5F6"/>
<stop offset="0.51" stop-color="#1B88DD"/>
<stop offset="0.87" stop-color="#29C5F6"/>
</linearGradient>
<linearGradient id="paint2_linear_716_3491" x1="102.662" y1="2.98" x2="91.1615" y2="22.8986" gradientUnits="userSpaceOnUse">
<stop stop-color="#4BD4FF"/>
<stop offset="1" stop-color="#007AD5"/>
</linearGradient>
</defs>
</svg>
