<svg width="376" height="397" viewBox="0 0 376 397" fill="none" xmlns="http://www.w3.org/2000/svg">
<path d="M-631 384.632C-589.584 345.309 -478.398 273.747 -364.989 302.084C-223.228 337.506 -77.8537 478.883 126.171 321.797C330.196 164.711 489.747 -4.69533 723.792 111.425C911.027 204.321 960.245 192.022 961.45 174.259" stroke="url(#paint0_linear_710_3469)" stroke-width="4"/>
<path d="M893.196 126.681C857.26 157.459 760.787 213.472 662.384 191.292C539.381 163.567 413.242 52.9086 236.214 175.862C59.1857 298.816 -79.2533 431.413 -282.329 340.524C-444.79 267.812 -487.496 277.44 -488.541 291.342" stroke="#FF4FD8" stroke-width="2"/>
<path d="M859.466 107.514C828.339 147.237 664.543 33.1638 579.309 4.53845C472.768 -31.2432 488.04 217.235 290.409 170.988C94.7029 125.191 108.876 348.188 -82.1943 382.314C-312.125 423.38 -488.826 296.712 -489.731 314.655" stroke="#67FF1F" stroke-dasharray="8 8"/>
<defs>
<linearGradient id="paint0_linear_710_3469" x1="165.225" y1="72.9902" x2="165.225" y2="394.417" gradientUnits="userSpaceOnUse">
<stop stop-color="#4BD4FF"/>
<stop offset="1" stop-color="#007AD5"/>
</linearGradient>
</defs>
</svg>
