<svg width="15" height="32" viewBox="0 0 15 32" fill="none" xmlns="http://www.w3.org/2000/svg">
<path d="M3.54122 6.31718C3.54122 7.0954 3.54122 10.5689 3.54122 10.5689H0.493652V15.768H3.54122V31.2179H9.80158V15.7685H14.0026C14.0026 15.7685 14.396 13.2755 14.5867 10.5498C14.0399 10.5498 9.82525 10.5498 9.82525 10.5498C9.82525 10.5498 9.82525 7.52512 9.82525 6.99496C9.82525 6.46365 10.5078 5.74896 11.1824 5.74896C11.8558 5.74896 13.277 5.74896 14.5933 5.74896C14.5933 5.0411 14.5933 2.59528 14.5933 0.336426C12.8361 0.336426 10.8369 0.336426 9.95569 0.336426C3.38647 0.336067 3.54122 5.54032 3.54122 6.31718Z" fill="#29C5F6"/>
</svg>
