<svg width="29" height="29" viewBox="0 0 29 29" fill="none" xmlns="http://www.w3.org/2000/svg">
<path d="M5.79852 1.3961C4.87859 1.75181 4.09359 2.23017 3.32084 3.01518C2.5481 3.78792 2.06974 4.57293 1.70177 5.49286C1.35832 6.37599 1.12528 7.39405 1.05168 8.89047C0.978086 10.3869 0.96582 10.853 0.96582 14.6554C0.96582 18.4578 0.978086 18.9239 1.05168 20.4203C1.12528 21.9044 1.35832 22.9225 1.70177 23.8179C2.05747 24.7378 2.53584 25.5228 3.32084 26.2956C4.09359 27.0683 4.87859 27.5467 5.79852 27.9146C6.68166 28.2581 7.69972 28.4911 9.19614 28.5647C10.6803 28.6383 11.1587 28.6506 14.961 28.6506C18.7634 28.6506 19.2295 28.6383 20.7259 28.5647C22.2101 28.4911 23.2282 28.2581 24.1236 27.9146C25.0435 27.5589 25.8285 27.0806 26.6012 26.2956C27.374 25.5228 27.8523 24.7378 28.2203 23.8179C28.5637 22.9348 28.7968 21.9167 28.8704 20.4203C28.944 18.9361 28.9563 18.4578 28.9563 14.6554C28.9563 10.853 28.944 10.3869 28.8704 8.89047C28.7968 7.39405 28.5637 6.38826 28.2203 5.49286C27.8646 4.57293 27.3862 3.78792 26.6135 3.01518C25.8408 2.24244 25.0557 1.76407 24.1358 1.3961C23.2527 1.05266 22.2346 0.819611 20.7382 0.746016C19.2418 0.672422 18.7757 0.660156 14.9733 0.660156C11.1709 0.660156 10.7048 0.672422 9.2084 0.746016C7.71198 0.807345 6.69392 1.05266 5.81079 1.3961H5.79852ZM20.6033 3.26049C21.9648 3.32182 22.7007 3.55487 23.2036 3.73886C23.8537 3.99644 24.3198 4.29082 24.8104 4.78145C25.3011 5.27208 25.5954 5.73818 25.853 6.38826C26.0493 6.87889 26.2701 7.6271 26.3314 8.9886C26.405 10.4605 26.405 10.9021 26.405 14.6431C26.405 18.3842 26.3927 18.8257 26.3314 20.2976C26.2701 21.6591 26.037 22.3951 25.853 22.898C25.5954 23.548 25.3011 24.0141 24.8104 24.5048C24.3198 24.9954 23.8537 25.2898 23.2036 25.5474C22.713 25.7436 21.9648 25.9644 20.6033 26.0257C19.1314 26.0993 18.6898 26.0993 14.9488 26.0993C11.2077 26.0993 10.7662 26.087 9.29426 26.0257C7.93277 25.9644 7.19682 25.7313 6.69392 25.5474C6.04384 25.2898 5.57774 24.9954 5.08711 24.5048C4.59648 24.0141 4.3021 23.548 4.04452 22.898C3.84827 22.4073 3.62749 21.6591 3.56616 20.2976C3.49256 18.8257 3.49256 18.3842 3.49256 14.6431C3.49256 10.9021 3.50483 10.4605 3.56616 8.9886C3.62749 7.6271 3.86054 6.89116 4.04452 6.38826C4.3021 5.73818 4.59648 5.27208 5.08711 4.78145C5.57774 4.29082 6.04384 3.99644 6.69392 3.73886C7.18455 3.54261 7.93277 3.32182 9.29426 3.26049C10.7662 3.1869 11.2077 3.1869 14.9488 3.1869C18.6898 3.1869 19.1314 3.1869 20.6033 3.26049Z" fill="#29C5F6"/>
<path d="M7.78564 14.6432C7.78564 18.6051 10.9993 21.8187 14.9611 21.8187C18.9229 21.8187 22.1366 18.6051 22.1366 14.6432C22.1366 10.6814 18.9229 7.46777 14.9611 7.46777C10.9993 7.46777 7.78564 10.6814 7.78564 14.6432ZM19.6221 14.6432C19.6221 17.219 17.5369 19.3042 14.9611 19.3042C12.3853 19.3042 10.3001 17.219 10.3001 14.6432C10.3001 12.0674 12.3853 9.98225 14.9611 9.98225C17.5369 9.98225 19.6221 12.0674 19.6221 14.6432Z" fill="#29C5F6"/>
<path d="M22.4309 8.86619C23.359 8.86619 24.1113 8.11384 24.1113 7.18578C24.1113 6.25772 23.359 5.50537 22.4309 5.50537C21.5028 5.50537 20.7505 6.25772 20.7505 7.18578C20.7505 8.11384 21.5028 8.86619 22.4309 8.86619Z" fill="#29C5F6"/>
</svg>
