<svg width="33" height="26" viewBox="0 0 33 26" fill="none" xmlns="http://www.w3.org/2000/svg">
<path d="M29.5417 3.25256L32.104 0.809485V0.274414H23.2301L16.9059 15.9698L9.71232 0.274414H0.40789V0.809485L3.40069 4.40152C3.69328 4.66698 3.84376 5.05688 3.80614 5.44677V19.5619C3.8981 20.0721 3.73508 20.5905 3.37561 20.9597L0.00244141 25.037V25.5638H9.55766V25.0287L6.18867 20.9639C6.00816 20.782 5.87239 20.5612 5.79191 20.3188C5.71144 20.0763 5.68844 19.8187 5.72471 19.566V7.35478L14.1137 25.5721H15.0877L22.3021 7.35478V21.8681C22.3021 22.2497 22.3021 22.3285 22.0513 22.5815L19.4556 25.0827V25.6177H32.0454V25.0827L29.5417 22.6396C29.3243 22.4737 29.2115 22.1958 29.2575 21.9261V3.96599C29.2358 3.8327 29.2508 3.69609 29.3008 3.57053C29.3508 3.44498 29.4341 3.33513 29.5417 3.25256Z" fill="#29C5F6"/>
</svg>
