<svg width="114" height="112" viewBox="0 0 114 112" fill="none" xmlns="http://www.w3.org/2000/svg">
<path d="M50 110.963H49V110.99C22.2983 110.462 1 88.8338 1 62C1 34.8326 22.8686 13 50 13C77.1324 13 99 34.7965 99 61.963C99 89.1309 77.1679 110.963 50 110.963Z" fill="#0D141E" stroke="url(#paint0_linear_716_3490)" stroke-width="2"/>
<path d="M40.9432 45.1316C46.891 51.0901 53.8955 57.9166 57.0606 65.309C60.4121 73.1401 57.4652 82.0719 53.9004 87.7738C50.3356 93.4757 48.0041 98.1298 49.1711 99.0673C50.3381 100.005 58.4017 94.2838 60.2503 84.544C62.2582 73.9626 61.2212 65.8509 53.1232 56.1566C44.123 45.381 35.113 38.4778 31.5483 36.0704C27.9835 33.663 27.4025 26.6927 34.787 28.2153C42.1739 29.7355 64.6535 39.8733 70.16 51.0254C75.6665 62.1775 64.9771 85.3688 61.8022 90.7542C66.4678 79.5398 73.3987 61.6068 68.3458 51.7855C63.2928 41.9641 43.7283 33.4089 38.999 31.9534C34.2697 30.4979 30.1238 29.9249 32.3255 32.7782C34.5271 35.6316 40.6171 38.8614 48.6513 47.1625C56.6855 55.4637 61.3486 62.0528 63.1629 70.0997C64.9772 78.1467 62.9692 87.6515 59.4044 93.5428C55.8397 99.4342 50.6592 103.175 47.3544 101.273C44.0495 99.3719 50.3552 90.0469 53.2507 84.6087C56.357 78.7773 59.277 70.2244 53.8342 61.8609C48.3914 53.4975 44.959 49.5052 40.9407 45.134L40.9432 45.1316Z" fill="url(#paint1_linear_716_3490)"/>
<path d="M89.5 15.5L95.4118 20L105.5 6" stroke="url(#paint2_linear_716_3490)" stroke-width="4" stroke-linecap="round"/>
<defs>
<linearGradient id="paint0_linear_716_3490" x1="50" y1="12" x2="50" y2="112" gradientUnits="userSpaceOnUse">
<stop stop-color="#4BD4FF"/>
<stop offset="1" stop-color="#007AD5"/>
</linearGradient>
<linearGradient id="paint1_linear_716_3490" x1="37.7535" y1="25.9925" x2="66.2219" y2="97.6816" gradientUnits="userSpaceOnUse">
<stop offset="0.21" stop-color="#29C5F6"/>
<stop offset="0.51" stop-color="#1B88DD"/>
<stop offset="0.87" stop-color="#29C5F6"/>
</linearGradient>
<linearGradient id="paint2_linear_716_3490" x1="97.5" y1="6" x2="97.5" y2="20" gradientUnits="userSpaceOnUse">
<stop stop-color="#4BD4FF"/>
<stop offset="1" stop-color="#007AD5"/>
</linearGradient>
</defs>
</svg>
