<svg width="33" height="27" viewBox="0 0 33 27" fill="none" xmlns="http://www.w3.org/2000/svg">
<path d="M32.0727 3.87457C30.914 4.3918 29.6632 4.74277 28.3573 4.89055C29.6816 4.09624 30.7116 2.82166 31.1899 1.30694C29.9391 2.04583 28.5596 2.58152 27.0882 2.87708C25.911 1.62097 24.2372 0.82666 22.3795 0.82666C18.8112 0.82666 15.9235 3.7268 15.9235 7.3104C15.9235 7.82763 15.9786 8.3079 16.089 8.78818C10.7182 8.5111 5.97272 5.94346 2.77229 2.00888C2.22049 2.96944 1.88942 4.07777 1.88942 5.25999C1.88942 7.5136 3.0298 9.49013 4.75876 10.6539C3.69195 10.6169 2.69872 10.3214 1.83424 9.8411V9.91499C1.83424 13.0553 4.05982 15.6783 7.02113 16.2694C6.48773 16.4172 5.91754 16.4911 5.32895 16.4911C4.90591 16.4911 4.50126 16.4541 4.115 16.3803C4.94269 18.9479 7.31542 20.8321 10.148 20.8875C7.94079 22.6239 5.14502 23.6583 2.12853 23.6583C1.61352 23.6583 1.09851 23.6214 0.583496 23.5659C3.43445 25.4132 6.8372 26.4846 10.4791 26.4846C22.3611 26.4846 28.8539 16.6019 28.8539 8.03082C28.8539 7.75374 28.8539 7.47665 28.8355 7.19957C30.1047 6.29443 31.1899 5.14916 32.0543 3.83763" fill="#29C5F6"/>
</svg>
